Patient4_TMGait_0pt3_02_right_25_GRF.mot
version=1
nRows=38
nColumns=19
inDegrees=no
endheader
time	F1x	F1y	F1z	M1x	M1y	M1z	F2x	F2y	F2z	M2x	M2y	M2z	EC1x	EC1y	EC1z	EC2x	EC2y	EC2z
48.05	1.3739	743.6761	47.6224	-263.2578	-47.3554	745.4139	0.33046	-9.597	-1.8407	-1.0154	-0.90477	-14.5143	-0.0592	0.0182	-0.0073	-0.0462	0.0165	0.9585
48.0694	-1.438	761.5416	50.0536	-269.475	-50.4822	763.139	0.16952	-5.7213	-1.2367	-0.40885	-0.58951	-8.9823	-0.0592	0.0182	-0.0073	-0.0462	0.0165	0.9585
48.0889	-4.1416	783.6636	52.174	-277.2299	-53.1939	784.7473	0.0052202	-2.4047	-0.73119	0.11328	-0.30352	-4.2352	-0.0592	0.0182	-0.0073	-0.0462	0.0165	0.9585
48.1083	-6.4252	808.5869	53.7355	-286.0439	-55.1321	808.6392	-0.14633	0.16189	-0.34978	0.52295	-0.073572	-0.55872	-0.0592	0.0182	-0.0073	-0.0462	0.0165	0.9585
48.1277	-8.0722	833.9999	54.6324	-295.1143	-56.1183	832.437	-0.2792	1.9803	-0.09013	0.82136	0.097013	2.0417	-0.0592	0.0182	-0.0073	-0.0462	0.0165	0.9585
48.1471	-8.974	857.0828	54.8799	-303.4282	-56.1395	853.3436	-0.39293	3.1471	0.066647	1.0208	0.21831	3.7026	-0.0592	0.0182	-0.0073	-0.0462	0.0165	0.9585
48.1666	-9.1108	874.9508	54.5814	-309.9217	-55.3102	868.5665	-0.48965	3.7864	0.14584	1.1348	0.30359	4.6104	-0.0592	0.0182	-0.0073	-0.0462	0.0165	0.9585
48.186	-8.5267	885.1467	53.8844	-313.6745	-53.8154	875.7819	-0.5678	4.0083	0.17032	1.1715	0.3637	4.9372	-0.0592	0.0182	-0.0073	-0.0462	0.0165	0.9585
48.2054	-7.2792	886.1409	52.9295	-314.1093	-51.8403	873.5856	-0.61709	3.8858	0.16042	1.1278	0.39923	4.8055	-0.0592	0.0182	-0.0073	-0.0462	0.0165	0.9585
48.2249	-5.403	877.67	51.8184	-311.1248	-49.5219	861.7932	-0.62567	3.4524	0.13494	0.99147	0.40532	4.2881	-0.0592	0.0182	-0.0073	-0.0462	0.0165	0.9585
48.2443	-2.9092	860.7915	50.6124	-305.1123	-46.9436	841.4794	-0.60052	2.7203	0.10815	0.75079	0.38367	3.4221	-0.0592	0.0182	-0.0073	-0.0462	0.0165	0.9585
48.2637	0.21089	837.6745	49.3494	-296.8708	-44.1466	814.7728	-0.55115	1.6802	0.091028	0.39246	0.33538	2.2137	-0.0592	0.0182	-0.0073	-0.0462	0.0165	0.9585
48.2831	3.9577	811.1717	48.0774	-287.4411	-41.1687	784.4535	-0.479	0.31924	0.094583	-0.093018	0.25606	0.65803	-0.0592	0.0182	-0.0073	-0.0462	0.0165	0.9585
48.3026	8.2949	784.3032	46.8649	-277.9134	-38.0672	753.474	-0.37509	-1.336	0.12626	-0.69749	0.14047	-1.2138	-0.0592	0.0182	-0.0073	-0.0462	0.0165	0.9585
48.322	13.1499	759.8074	45.79	-269.2658	-34.9199	724.5292	-0.22081	-3.1744	0.19136	-1.3784	-0.019456	-3.2836	-0.0592	0.0182	-0.0073	-0.0462	0.0165	0.9585
48.3414	18.4084	739.8118	44.9298	-262.2485	-31.8222	699.7383	0.008712	-4.9371	0.28728	-2.0341	-0.22679	-5.2749	-0.0592	0.0182	-0.0073	-0.0462	0.0165	0.9585
48.3609	23.9006	725.5854	44.35	-257.2929	-28.8858	680.4108	0.33627	-6.1522	0.39982	-2.479	-0.47575	-6.6817	-0.0592	0.0182	-0.0073	-0.0462	0.0165	0.9585
48.3803	29.4267	717.3875	44.096	-254.4624	-26.2213	666.9081	0.7748	-6.0761	0.50269	-2.4222	-0.74537	-6.7	-0.0592	0.0182	-0.0073	-0.0462	0.0165	0.9585
48.3997	34.7738	714.4236	44.1901	-253.438	-23.9291	658.6148	1.3165	-3.6505	0.55256	-1.4501	-0.98609	-4.1772	-0.0592	0.0182	-0.0073	-0.0462	0.0165	0.9585
48.4191	39.7048	714.9138	44.6255	-253.5468	-22.0963	654.016	1.9134	2.4845	0.48328	0.96747	-1.1045	2.3796	-0.0592	0.0182	-0.0073	-0.0462	0.0165	0.9585
48.4386	43.9493	716.3252	45.3516	-253.8509	-20.7873	650.9261	2.4547	13.8942	0.20248	5.437	-0.94945	14.6972	-0.0592	0.0182	-0.0073	-0.0462	0.0165	0.9585
48.458	47.1999	715.7512	46.2506	-253.2909	-20.0269	646.8385	2.75	32.1127	-0.40394	12.5487	-0.31093	34.4872	-0.0592	0.0182	-0.0073	-0.0462	0.0165	0.9585
48.4774	49.1372	710.3363	47.1342	-250.846	-19.7871	639.2958	2.4534	58.2722	-1.4664	22.7329	1.0985	63.0389	-0.0592	0.0182	-0.0073	-0.0462	0.0165	0.9585
48.4969	49.5061	697.715	47.7617	-245.6998	-19.9698	626.2436	0.92121	92.5931	-3.1124	36.0604	3.6723	100.6588	-0.0592	0.0182	-0.0073	-0.0462	0.0165	0.9585
48.5163	48.2078	676.4306	47.8717	-237.3898	-20.3983	606.3621	-2.4636	133.8172	-5.4336	52.0229	7.7387	146.0547	-0.0592	0.0182	-0.0073	-0.0462	0.0165	0.9585
48.5357	45.3923	646.3115	47.2527	-225.9284	-20.8433	579.3699	-7.5939	178.9984	-8.5064	69.4476	13.3169	196.0415	-0.0592	0.0182	-0.0073	-0.0462	0.0165	0.9585
48.5551	41.5295	608.7225	45.8265	-211.8736	-21.0679	546.2406	-13.8325	224.6864	-12.3355	86.9706	20.1317	246.8037	-0.0592	0.0182	-0.0073	-0.0462	0.0165	0.9585
48.5746	37.3078	566.3146	43.6842	-196.2249	-20.8935	509.0287	-20.4658	268.7474	-16.6408	103.7689	27.5946	295.9259	-0.0592	0.0182	-0.0073	-0.0462	0.0165	0.9585
48.594	33.3701	522.1072	41.011	-180.0908	-20.2285	470.1477	-26.8892	310.2413	-20.9639	119.5115	34.9874	342.2899	-0.0592	0.0182	-0.0073	-0.0462	0.0165	0.9585
48.6134	30.0994	478.588	37.98	-164.3676	-19.0578	431.6409	-32.624	348.6482	-24.8402	134.039	41.6338	385.2443	-0.0592	0.0182	-0.0073	-0.0462	0.0165	0.9585
48.6329	27.5844	437.3495	34.7244	-149.6153	-17.4364	394.8758	-37.3257	383.5238	-27.9472	147.2094	47.057	424.2351	-0.0592	0.0182	-0.0073	-0.0462	0.0165	0.9585
48.6523	25.72	399.1317	31.3668	-136.0791	-15.4857	360.5438	-40.8036	414.396	-30.1634	158.8505	51.0498	458.6861	-0.0592	0.0182	-0.0073	-0.0462	0.0165	0.9585
48.6717	24.3352	363.993	28.0362	-123.7547	-13.3674	328.7563	-43.0141	440.8641	-31.5576	168.8011	53.6617	488.0922	-0.0592	0.0182	-0.0073	-0.0462	0.0165	0.9585
48.6911	23.2878	331.6094	24.8562	-112.4997	-11.2391	299.2921	-44.0293	462.9034	-32.3149	177.0405	55.1099	512.348	-0.0592	0.0182	-0.0073	-0.0462	0.0165	0.9585
48.7106	22.4941	301.6228	21.9149	-102.1599	-9.2132	271.9025	-43.9728	481.0023	-32.6546	183.755	55.6658	531.9	-0.0592	0.0182	-0.0073	-0.0462	0.0165	0.9585
48.73	21.9113	273.8938	19.2492	-92.6603	-7.3406	246.5149	-42.9828	496.0383	-32.7383	189.2981	55.5471	547.6273	-0.0592	0.0182	-0.0073	-0.0462	0.0165	0.9585
48.7494	21.5024	248.5692	16.8646	-84.0293	-5.6395	223.2972	-41.2094	509.065	-32.6083	194.109	54.8587	560.6308	-0.0592	0.0182	-0.0073	-0.0462	0.0165	0.9585
48.7689	21.2224	226.0026	14.7683	-76.3694	-4.1335	202.5972	-38.8232	521.0449	-32.2227	198.5985	53.6296	571.9617	-0.0592	0.0182	-0.0073	-0.0462	0.0165	0.9585
